<?xml version="1.0" standalone="no"?>
<!DOCTYPE svg PUBLIC "-//W3C//DTD SVG 20010904//EN"
 "http://www.w3.org/TR/2001/REC-SVG-20010904/DTD/svg10.dtd">
<svg version="1.0" xmlns="http://www.w3.org/2000/svg"
 width="16.000000pt" height="16.000000pt" viewBox="0 0 16.000000 16.000000"
 preserveAspectRatio="xMidYMid meet">

<g transform="translate(0.000000,16.000000) scale(0.100000,-0.100000)"
fill="#000000" stroke="none">
<path d="M86 129 c-10 -7 -14 -14 -8 -18 6 -4 6 -15 0 -31 l-10 -25 -9 23 c-6
15 -17 22 -34 22 -23 0 -25 -4 -25 -41 0 -41 19 -47 21 -6 1 21 1 20 8 -3 10
-35 62 -35 72 0 4 14 7 18 8 9 2 -35 51 -47 51 -12 0 8 -5 11 -11 8 -7 -5 -8
5 -3 30 9 50 -17 69 -60 44z"/>
</g>
</svg>
